#define dot_move_width 16
#define dot_move_height 16
#define dot_move_x_hot 7
#define dot_move_y_hot 7
static unsigned char dot_move_bits[] = {
   0x00, 0x00, 0x80, 0x01, 0xc0, 0x03, 0xe0, 0x07, 0x00, 0x00, 0xc8, 0x13,
   0x2c, 0x37, 0xae, 0x77, 0xee, 0x77, 0xec, 0x37, 0xc8, 0x13, 0x00, 0x00,
   0xe0, 0x07, 0xc0, 0x03, 0x80, 0x01, 0x00, 0x00};
