#define dot_move_mask_width 16
#define dot_move_mask_height 16
#define dot_move_mask_x_hot 7
#define dot_move_mask_y_hot 7
static unsigned char dot_move_mask_bits[] = {
   0xc0, 0x03, 0xe0, 0x07, 0xf0, 0x0f, 0xf0, 0x0f, 0xfc, 0x3f, 0xfe, 0x7f,
   0xff, 0xff, 0xff, 0xff, 0xff, 0xff, 0xff, 0xff, 0xfe, 0x7f, 0xfc, 0x3f,
   0xf0, 0x0f, 0xf0, 0x0f, 0xe0, 0x07, 0xc0, 0x03};
